<svg width="71" height="70" viewBox="0 0 71 70" fill="none" xmlns="http://www.w3.org/2000/svg">
<path fill-rule="evenodd" clip-rule="evenodd" d="M32.1742 7.40645C34.5738 3.37477 38.9683 0.666504 44.0004 0.666504C51.6096 0.666504 57.7651 6.85641 57.7651 14.476C57.7651 20.3728 56.3016 25.8402 52.7422 31.5037C54.0318 32.2158 55.2913 32.8873 56.517 33.5409C57.0715 33.8366 57.6191 34.1285 58.1595 34.4189C60.4355 35.642 62.5893 36.8401 64.4342 38.1072C68.1151 40.6353 71.0004 43.7418 71.0004 48.4284V54.3332V56.3332H69.0004H60.0034C60.6433 57.7338 61.0004 59.2782 61.0004 60.9998V67.6665V69.6665H59.0004H2.33374H0.33374V67.6665V60.9998C0.33374 55.8334 3.51772 52.3936 7.6627 49.5576C9.7404 48.136 12.1699 46.7893 14.7492 45.4085C15.36 45.0815 15.9797 44.7523 16.6075 44.4188C18.0729 43.6404 19.5831 42.8382 21.1312 41.9835C17.0175 35.5475 15.3337 29.3539 15.3337 22.6665C15.3337 14.1981 22.1987 7.33317 30.6671 7.33317C31.1752 7.33317 31.6779 7.35795 32.1742 7.40645ZM36.3245 8.41126C41.9927 10.6628 46.0004 16.1949 46.0004 22.6665C46.0004 29.3539 44.3167 35.5475 40.2029 41.9835C41.5182 42.7096 42.8096 43.3998 44.0691 44.0695C44.2946 44.1894 44.5193 44.3088 44.7431 44.4276C46.3497 45.281 47.9076 46.1085 49.3632 46.9254C52.3349 48.5933 55.0602 50.3125 57.1145 52.3332H67.0004V48.4284C67.0004 45.7341 65.474 43.6739 62.1696 41.4044C60.5218 40.2727 58.5396 39.1642 56.266 37.9424C55.748 37.664 55.2151 37.3799 54.6697 37.0891C52.8503 36.119 50.8922 35.075 48.8876 33.9252L46.985 32.8338L48.2469 31.0397C52.2441 25.3563 53.7651 20.1493 53.7651 14.476C53.7651 9.0512 49.3861 4.6665 44.0004 4.6665C40.8905 4.6665 38.1149 6.1276 36.3245 8.41126ZM30.6671 11.3332C24.4078 11.3332 19.3337 16.4073 19.3337 22.6665C19.3337 29.1254 21.0747 35.0547 25.6342 41.513L26.9036 43.311L24.9927 44.403C22.7248 45.6989 20.5105 46.875 18.4492 47.9699C17.8305 48.2986 17.2255 48.6199 16.6371 48.9349C14.0601 50.3145 11.8021 51.572 9.92144 52.8588C6.14976 55.4394 4.33374 57.8329 4.33374 60.9998V65.6665H57.0004V60.9998C57.0004 58.9501 56.2501 57.2799 54.7901 55.6825C53.1453 53.8832 50.6529 52.2363 47.4054 50.4136C45.9934 49.6211 44.4801 48.8172 42.8683 47.9611C42.6445 47.8422 42.4188 47.7223 42.1913 47.6013C40.3337 46.6137 38.3646 45.5591 36.3415 44.403L34.4305 43.311L35.6999 41.513C40.2595 35.0547 42.0004 29.1254 42.0004 22.6665C42.0004 17.1717 38.0879 12.5862 32.8958 11.5518C32.1768 11.4086 31.4317 11.3332 30.6671 11.3332Z" fill="#817E7E"/>
</svg>
