<svg width="60" height="60" viewBox="0 0 60 60" fill="none" xmlns="http://www.w3.org/2000/svg">
<path d="M55.8344 51.5742C57.7134 49.0554 59.0029 46.1466 59.6077 43.0628C60.2124 39.9789 60.117 36.7986 59.3285 33.7565C58.5399 30.7145 57.0784 27.8883 55.0518 25.4866C53.0251 23.0849 50.485 21.169 47.619 19.8802C46.9947 16.2883 45.56 12.886 43.4238 9.9317C41.2876 6.97744 38.5062 4.54899 35.2908 2.83086C32.0755 1.11272 28.5109 0.150123 24.8678 0.0161932C21.2247 -0.117736 17.599 0.58053 14.2663 2.05793C10.9335 3.53534 7.98125 5.75301 5.63394 8.54245C3.28663 11.3319 1.60597 14.6197 0.719676 18.156C-0.16662 21.6924 -0.235238 25.3843 0.519037 28.9511C1.27331 32.518 2.83063 35.866 5.07267 38.7407L0.904991 42.8786C0.48895 43.3003 0.207118 43.8357 0.0950582 44.4174C-0.0170017 44.9991 0.0457313 45.6009 0.275342 46.147C0.500277 46.6945 0.882257 47.1633 1.37314 47.4941C1.86403 47.825 2.44186 48.0031 3.03381 48.006H20.0943C21.7933 51.588 24.472 54.6156 27.8202 56.7382C31.1685 58.8609 35.0494 59.9918 39.0138 60H57.0037C57.5957 59.997 58.1735 59.8189 58.6644 59.4881C59.1553 59.1573 59.5373 58.6885 59.7622 58.1409C59.9918 57.5949 60.0545 56.993 59.9425 56.4114C59.8304 55.8297 59.5486 55.2942 59.1325 54.8726L55.8344 51.5742ZM18.0255 39.0106C18.0296 40.0147 18.1098 41.017 18.2653 42.0091H10.2598L11.3092 40.9896C11.5902 40.7108 11.8133 40.3792 11.9655 40.0138C12.1177 39.6484 12.1961 39.2565 12.1961 38.8606C12.1961 38.4648 12.1177 38.0729 11.9655 37.7075C11.8133 37.3421 11.5902 37.0105 11.3092 36.7317C9.62881 35.0697 8.29662 33.0893 7.39054 30.9063C6.48445 28.7233 6.02265 26.3816 6.03213 24.0181C6.03213 19.2466 7.9275 14.6705 11.3013 11.2966C14.6751 7.92263 19.2509 6.02716 24.0221 6.02716C27.7451 6.00478 31.3815 7.14975 34.4201 9.3011C37.4587 11.4525 39.7468 14.502 40.9627 18.0211C40.303 18.0211 39.6734 18.0211 39.0138 18.0211C33.4473 18.0211 28.1089 20.2325 24.1728 24.1688C20.2367 28.1051 18.0255 33.4438 18.0255 39.0106ZM49.6278 54.003L49.7778 54.1529H39.0138C35.5457 54.1467 32.1871 52.9383 29.51 50.7335C26.833 48.5286 25.0031 45.4638 24.3321 42.0611C23.6612 38.6583 24.1906 35.1282 25.8303 32.0721C27.47 29.016 30.1185 26.6229 33.3246 25.3006C36.5307 23.9782 40.096 23.8084 43.4133 24.82C46.7305 25.8316 49.5945 27.9621 51.5172 30.8485C53.44 33.7349 54.3025 37.1987 53.958 40.6498C53.6135 44.1009 52.0832 47.3258 49.6278 49.7751C49.0629 50.3288 48.7396 51.0832 48.7283 51.8741C48.73 52.2708 48.8103 52.6633 48.9647 53.0287C49.1192 53.3941 49.3445 53.7253 49.6278 54.003Z" fill="#817E7E" fill-opacity="0.76"/>
</svg>
