<svg width="30" height="26" viewBox="0 0 30 26" fill="none" xmlns="http://www.w3.org/2000/svg">
<path d="M29.2824 12.1755C29.1655 11.9098 28.9902 11.667 28.7665 11.4611L16.4836 0.636674C16.2546 0.434824 15.9827 0.274707 15.6834 0.165467C15.3841 0.0562261 15.0634 0 14.7395 0C14.0853 0 13.4579 0.229019 12.9953 0.636674C12.7662 0.838524 12.5846 1.07816 12.4606 1.34189C12.3366 1.60562 12.2728 1.88828 12.2728 2.17374C12.2728 2.75025 12.5327 3.30315 12.9953 3.71081L21.102 10.8333H2.45658C1.80505 10.8333 1.18021 11.0614 0.719515 11.4674C0.258818 11.8733 0 12.424 0 12.9982C0 13.5723 0.258818 14.123 0.719515 14.529C1.18021 14.935 1.80505 15.163 2.45658 15.163H21.102L12.9953 22.2855C12.765 22.4868 12.5823 22.7262 12.4576 22.99C12.3329 23.2538 12.2686 23.5368 12.2686 23.8226C12.2686 24.1084 12.3329 24.3913 12.4576 24.6551C12.5823 24.9189 12.765 25.1584 12.9953 25.3596C13.2237 25.5625 13.4954 25.7236 13.7947 25.8335C14.0941 25.9434 14.4152 26 14.7395 26C15.0638 26 15.3848 25.9434 15.6842 25.8335C15.9836 25.7236 16.2553 25.5625 16.4836 25.3596L28.7665 14.5352C28.9902 14.3293 29.1655 14.0866 29.2824 13.8208C29.5281 13.2937 29.5281 12.7026 29.2824 12.1755Z" fill="white"/>
</svg>
