<svg width="101" height="120" viewBox="0 0 101 120" fill="none" xmlns="http://www.w3.org/2000/svg">
<path d="M39.7196 10.294L39.7578 10.2981L39.7578 80.2223L19.5674 60.0762C19.567 60.0758 19.5667 60.0755 19.5664 60.0752C18.0295 58.5376 15.9557 57.7038 13.8004 57.7038C11.6404 57.7038 9.57939 58.5408 8.0433 60.0745L8.04254 60.0753L4.37581 63.7402L4.37546 63.7405C2.84763 65.2683 2 67.3129 2 69.4805C2 71.6448 2.84004 73.6915 4.3709 75.2224L44.7422 115.597L44.7422 115.597C46.2767 117.132 48.3276 117.973 50.4941 117.968C52.6675 117.973 54.7206 117.133 56.2552 115.596L96.6291 75.2224L96.6297 75.2218C98.1585 73.6918 99 71.6465 99 69.4805C99 67.3153 98.1569 65.2707 96.6302 63.7416L96.6287 63.7402L92.964 60.0773C92.9639 60.0772 92.9638 60.077 92.9637 60.0769C91.4338 58.5436 89.3862 57.7038 87.2224 57.7038C85.0303 57.7038 83.0721 58.5645 81.5623 60.0767L81.5609 60.078L61.2403 80.4688L61.2403 10.2102C61.2403 5.70152 57.4066 2.0001 52.9592 2.0001H47.7732C43.1967 2.0001 39.7196 5.91682 39.7196 10.294Z" fill="#FF5913" stroke="white" stroke-width="4"/>
</svg>
