<svg width="26" height="23" viewBox="0 0 26 23" fill="none" xmlns="http://www.w3.org/2000/svg">
<path d="M25.4044 0.642445C25.2324 0.438876 25.0278 0.277299 24.8024 0.167034C24.5769 0.0567692 24.3351 0 24.0909 0C23.8467 0 23.6049 0.0567692 23.3794 0.167034C23.154 0.277299 22.9494 0.438876 22.7774 0.642445L8.99468 16.8448L3.2041 10.0251C3.02553 9.82256 2.81474 9.66333 2.58375 9.55646C2.35277 9.4496 2.10612 9.39719 1.85788 9.40223C1.60964 9.40727 1.36468 9.46967 1.13698 9.58585C0.909284 9.70203 0.703308 9.86973 0.530814 10.0794C0.35832 10.289 0.222687 10.5365 0.131659 10.8076C0.0406301 11.0788 -0.00401187 11.3684 0.000282903 11.6598C0.00457768 11.9512 0.0577249 12.2388 0.156689 12.5061C0.255654 12.7734 0.398497 13.0153 0.577065 13.2178L7.68117 21.5579C7.85315 21.7614 8.05777 21.923 8.28321 22.0333C8.50865 22.1435 8.75046 22.2003 8.99468 22.2003C9.23891 22.2003 9.48072 22.1435 9.70616 22.0333C9.9316 21.923 10.1362 21.7614 10.3082 21.5579L25.4044 3.83514C25.5922 3.63176 25.7421 3.38492 25.8446 3.11018C25.9471 2.83543 26 2.53874 26 2.23879C26 1.93885 25.9471 1.64216 25.8446 1.36741C25.7421 1.09267 25.5922 0.845827 25.4044 0.642445Z" fill="#3ED9D9"/>
</svg>
