<svg width="12" height="12" viewBox="0 0 12 12" fill="none" xmlns="http://www.w3.org/2000/svg">
<path d="M10.5983 6.34586L6.35897 10.0752C5.19658 11.0977 3.35043 11.0977 2.25641 10.0752C1.09402 9.05263 1.09402 7.42857 2.25641 6.46617L7.7265 1.65414C8.41026 1.11278 9.4359 1.11278 10.1197 1.65414C10.8034 2.25564 10.8034 3.21805 10.1197 3.7594L5.40171 7.90977C5.19658 8.09023 4.8547 8.09023 4.64957 7.90977C4.44444 7.72932 4.44444 7.42857 4.64957 7.24812L8.13675 4.18045C8.41026 3.93985 8.41026 3.57895 8.13675 3.33835C7.86325 3.09774 7.45299 3.09774 7.17949 3.33835L3.69231 6.46617C2.94017 7.12782 2.94017 8.15038 3.69231 8.81203C4.44444 9.41353 5.60684 9.41353 6.35897 8.81203L11.0769 4.66165C12.3077 3.57895 12.3077 1.89474 11.0769 0.81203C9.84615 -0.270677 7.93162 -0.270677 6.70085 0.81203L1.23077 5.62406C0.410257 6.34586 0 7.30827 0 8.27068C0 10.3759 1.91453 12 4.30769 12C5.47009 12 6.49573 11.5789 7.31624 10.9173L11.5556 7.18797C11.8291 6.94737 11.8291 6.58647 11.5556 6.34586C11.2821 6.10526 10.8718 6.10526 10.5983 6.34586Z" fill="#4C4C54"/>
</svg>
