<svg width="22" height="22" viewBox="0 0 22 22" fill="none" xmlns="http://www.w3.org/2000/svg">
<path fill-rule="evenodd" clip-rule="evenodd" d="M9.50003 3.90536C6.21572 4.59629 3.75003 7.5102 3.75003 11C3.75003 15.0041 6.99597 18.25 11 18.25C15.0041 18.25 18.25 15.0041 18.25 11C18.25 7.5102 15.7843 4.59629 12.5 3.90536V4.75V8.69473C13.2526 9.18541 13.75 10.0346 13.75 11C13.75 11.1951 13.7296 11.3856 13.6908 11.5694L14.9774 12.856L16.038 13.9167L13.9167 16.038L12.856 14.9773L11.5695 13.6907C11.3856 13.7296 11.1951 13.75 11 13.75C9.48125 13.75 8.25003 12.5188 8.25003 11C8.25003 10.0346 8.74748 9.18541 9.50003 8.69473V4.75V3.90536ZM0.750031 11C0.750031 5.33908 5.33911 0.75 11 0.75C16.6609 0.75 21.25 5.33908 21.25 11C21.25 16.6609 16.6609 21.25 11 21.25C5.33911 21.25 0.750031 16.6609 0.750031 11ZM11.1768 11.1768C11.222 11.1315 11.25 11.069 11.25 11C11.25 10.8619 11.1381 10.75 11 10.75C10.9314 10.75 10.8669 10.7796 10.8233 10.8232C10.7797 10.8668 10.75 10.9314 10.75 11C10.75 11.1381 10.862 11.25 11 11.25C11.0691 11.25 11.1316 11.222 11.1768 11.1768Z" fill="#4C4C53"/>
</svg>
