<svg width="19" height="11" viewBox="0 0 19 11" fill="none" xmlns="http://www.w3.org/2000/svg">
<path d="M1.3533 9.8928C1.66279 10.221 2.08957 10.4134 2.54044 10.4279C2.99131 10.4425 3.42962 10.2781 3.75965 9.97055L10.0817 4.12703L15.9279 10.3637C16.2374 10.6919 16.6642 10.8843 17.1151 10.8989C17.5659 10.9134 18.0042 10.749 18.3343 10.4415C18.4994 10.288 18.6324 10.1033 18.7258 9.89815C18.8191 9.69298 18.871 9.47135 18.8782 9.24606C18.8855 9.02076 18.8481 8.79625 18.7682 8.58549C18.6883 8.37472 18.5674 8.18186 18.4126 8.01804L11.4103 0.548127C11.2568 0.383041 11.0721 0.24998 10.867 0.156617C10.6618 0.0632537 10.4402 0.0114378 10.2149 0.00415847C9.98957 -0.00312083 9.76506 0.0342806 9.55429 0.114205C9.34352 0.194129 9.15067 0.314993 8.98685 0.469827L1.4316 7.46938C1.26652 7.62287 1.13346 7.80752 1.04009 8.01269C0.946729 8.21786 0.894911 8.43949 0.887632 8.66478C0.880352 8.89008 0.917756 9.11458 0.99768 9.32535C1.0776 9.53612 1.19847 9.72898 1.3533 9.8928Z" fill="#858080"/>
</svg>
