<svg width="26" height="26" viewBox="0 0 26 26" fill="none" xmlns="http://www.w3.org/2000/svg">
<circle cx="13" cy="13" r="13" fill="white"/>
<path d="M14.2437 16.1592L14.2327 16.1429L14.2204 16.1277L14.1004 15.9777L14.0821 15.9547L14.0612 15.9341C13.8503 15.726 13.5824 15.585 13.2914 15.5289C13.0006 15.4729 12.6998 15.5042 12.4268 15.6189C12.2531 15.6915 12.0931 15.7933 11.9537 15.92L11.9441 15.9287L11.935 15.9379C11.796 16.0781 11.686 16.2443 11.6114 16.427C11.5367 16.6098 11.4989 16.8055 11.5 17.0029L11.5 17.006C11.5024 17.1975 11.5413 17.3866 11.6147 17.5633C11.6848 17.7512 11.7945 17.9218 11.9363 18.0637C12.0774 18.2048 12.247 18.314 12.4336 18.3842C12.6126 18.4607 12.8053 18.5002 13 18.5002C13.1948 18.5002 13.3874 18.4607 13.5664 18.3842C13.753 18.314 13.9226 18.2048 14.0637 18.0637C14.2055 17.9218 14.3152 17.7512 14.3853 17.5633C14.4567 17.3915 14.4955 17.2078 14.4997 17.0218C14.5053 16.9357 14.505 16.8493 14.4987 16.7632L14.4951 16.7157L14.4827 16.6697C14.4574 16.5759 14.4203 16.4859 14.3722 16.4018C14.3384 16.3165 14.2953 16.2351 14.2437 16.1592ZM13 7.5C12.6022 7.5 12.2206 7.65804 11.9393 7.93934C11.658 8.22064 11.5 8.60217 11.5 9V13C11.5 13.3978 11.658 13.7794 11.9393 14.0607C12.2206 14.342 12.6022 14.5 13 14.5C13.3978 14.5 13.7794 14.342 14.0607 14.0607C14.342 13.7794 14.5 13.3978 14.5 13V9C14.5 8.60217 14.342 8.22064 14.0607 7.93934C13.7794 7.65804 13.3978 7.5 13 7.5ZM13 2.5C10.9233 2.5 8.89323 3.11581 7.16652 4.26957C5.4398 5.42332 4.09399 7.0632 3.29927 8.98182C2.50455 10.9004 2.29661 13.0116 2.70176 15.0484C3.1069 17.0852 4.10693 18.9562 5.57538 20.4246C7.04383 21.8931 8.91476 22.8931 10.9516 23.2982C12.9884 23.7034 15.0996 23.4955 17.0182 22.7007C18.9368 21.906 20.5767 20.5602 21.7304 18.8335C22.8842 17.1068 23.5 15.0767 23.5 13C23.5 11.6211 23.2284 10.2557 22.7007 8.98182C22.1731 7.7079 21.3996 6.55039 20.4246 5.57538C19.4496 4.60036 18.2921 3.82694 17.0182 3.29926C15.7443 2.77159 14.3789 2.5 13 2.5ZM13 20.5C11.5166 20.5 10.0666 20.0601 8.83323 19.236C7.59986 18.4119 6.63857 17.2406 6.07091 15.8701C5.50325 14.4997 5.35473 12.9917 5.64412 11.5368C5.9335 10.082 6.64781 8.74559 7.6967 7.6967C8.7456 6.64781 10.082 5.9335 11.5368 5.64411C12.9917 5.35472 14.4997 5.50325 15.8701 6.0709C17.2406 6.63856 18.4119 7.59985 19.236 8.83322C20.0601 10.0666 20.5 11.5166 20.5 13C20.5 14.9891 19.7098 16.8968 18.3033 18.3033C16.8968 19.7098 14.9891 20.5 13 20.5Z" stroke="#FD8900"/>
</svg>
