<svg width="9" height="13" viewBox="0 0 9 13" fill="none" xmlns="http://www.w3.org/2000/svg">
<path d="M0.76 12.08C0.64 12.08 0.54 12.0467 0.46 11.98C0.393333 11.9 0.36 11.8 0.36 11.68V10.8C0.36 10.6533 0.393333 10.5333 0.46 10.44C0.526667 10.3467 0.646667 10.24 0.82 10.12L6.16 6.46L0.82 2.8C0.646667 2.69333 0.526667 2.59333 0.46 2.5C0.393333 2.40667 0.36 2.28667 0.36 2.14V1.26C0.36 1.14 0.393333 1.04667 0.46 0.979999C0.54 0.899999 0.64 0.859999 0.76 0.859999C0.88 0.859999 1.04 0.926666 1.24 1.06L7.54 5.38C7.75333 5.54 7.9 5.68667 7.98 5.82C8.07333 5.95333 8.12 6.11333 8.12 6.3V6.64C8.12 6.82667 8.07333 6.98667 7.98 7.12C7.88667 7.25333 7.74 7.39333 7.54 7.54L1.24 11.88C1.04 12.0133 0.88 12.08 0.76 12.08Z" fill="white"/>
</svg>
